<svg width="90" height="56" viewBox="0 0 90 56" fill="none" xmlns="http://www.w3.org/2000/svg">
<path d="M12.0052 19.5545C12.1644 19.3635 12.3447 19.2681 12.5463 19.2681C12.7691 19.2681 12.9972 19.3689 13.2307 19.5704C13.3474 19.6871 13.4429 19.8039 13.5171 19.9206C13.602 20.0373 13.6444 20.154 13.6444 20.2707C13.6444 20.4617 13.5755 20.6261 13.4376 20.7641L11.305 23.2468L7.15116 28.1327V31.3316C7.15116 31.8409 6.83286 32.0955 6.19626 32.0955C5.57027 32.0955 5.25728 31.8409 5.25728 31.3316V20.0479C5.25728 19.5386 5.57027 19.284 6.19626 19.284C6.83286 19.284 7.15116 19.5386 7.15116 20.0479V25.2521L12.0052 19.5545ZM9.74529 27.1141C9.63919 26.9656 9.58614 26.7852 9.58614 26.573C9.58614 26.2547 9.71877 26.0001 9.98401 25.8091H9.9681C10.1803 25.6606 10.3925 25.5863 10.6047 25.5863C10.8063 25.5863 10.976 25.703 11.114 25.9364L14.1856 30.4244L14.1696 30.4085C14.2651 30.557 14.3129 30.7162 14.3129 30.886C14.3129 31.1618 14.1749 31.4058 13.8991 31.618H13.915C13.7983 31.6923 13.6869 31.7507 13.5808 31.7931C13.4747 31.8355 13.3792 31.8568 13.2943 31.8568C13.2094 31.8568 13.1193 31.8249 13.0238 31.7613C12.9389 31.6976 12.854 31.618 12.7691 31.5226L9.74529 27.1141ZM27.143 20.0479C27.143 19.5386 27.456 19.284 28.082 19.284C28.7186 19.284 29.0369 19.5386 29.0369 20.0479V31.3316C29.0369 31.8409 28.7186 32.0955 28.082 32.0955C27.456 32.0955 27.143 31.8409 27.143 31.3316V20.0479ZM22.3049 31.3316C22.3049 31.8409 21.9866 32.0955 21.35 32.0955C20.724 32.0955 20.411 31.8409 20.411 31.3316V20.0479C20.411 19.5386 20.724 19.284 21.35 19.284C21.9866 19.284 22.3049 19.5386 22.3049 20.0479V31.3316ZM26.029 25.4271C26.029 25.7985 25.9017 26.1115 25.647 26.3661C25.3924 26.6208 25.0794 26.7481 24.7081 26.7481C24.3473 26.7481 24.0396 26.6208 23.785 26.3661C23.5304 26.1115 23.403 25.7985 23.403 25.4271C23.403 25.0558 23.5304 24.7428 23.785 24.4882C24.0396 24.2335 24.3473 24.1062 24.7081 24.1062C25.0794 24.1062 25.3924 24.2335 25.647 24.4882C25.9017 24.7428 26.029 25.0558 26.029 25.4271ZM66.7283 19.5545C66.8875 19.3635 67.0678 19.2681 67.2694 19.2681C67.4922 19.2681 67.7204 19.3689 67.9538 19.5704C68.0705 19.6871 68.166 19.8039 68.2402 19.9206C68.3251 20.0373 68.3676 20.154 68.3676 20.2707C68.3676 20.4617 68.2986 20.6261 68.1607 20.7641L66.0281 23.2468L61.8743 28.1327V31.3316C61.8743 31.8409 61.556 32.0955 60.9194 32.0955C60.2934 32.0955 59.9804 31.8409 59.9804 31.3316V20.0479C59.9804 19.5386 60.2934 19.284 60.9194 19.284C61.556 19.284 61.8743 19.5386 61.8743 20.0479V25.2521L66.7283 19.5545ZM64.4684 27.1141C64.3623 26.9656 64.3093 26.7852 64.3093 26.573C64.3093 26.2547 64.4419 26.0001 64.7071 25.8091H64.6912C64.9034 25.6606 65.1156 25.5863 65.3278 25.5863C65.5294 25.5863 65.6992 25.703 65.8371 25.9364L68.9087 30.4244L68.8928 30.4085C68.9882 30.557 69.036 30.7162 69.036 30.886C69.036 31.1618 68.8981 31.4058 68.6222 31.618H68.6381C68.5214 31.6923 68.41 31.7507 68.3039 31.7931C68.1978 31.8355 68.1023 31.8568 68.0174 31.8568C67.9326 31.8568 67.8424 31.8249 67.7469 31.7613C67.662 31.6976 67.5771 31.618 67.4922 31.5226L64.4684 27.1141ZM79.3198 20.9232L75.8344 31.618V31.6021C75.7707 31.7613 75.6806 31.8939 75.5639 32C75.4578 32.0955 75.3251 32.1432 75.166 32.1432C75.0811 32.1432 74.9962 32.1326 74.9113 32.1114C74.8371 32.1008 74.7575 32.0849 74.6726 32.0637H74.6885C74.0838 31.8727 73.861 31.5332 74.0201 31.0451L77.6487 20.0161C77.7018 19.8463 77.7919 19.7031 77.9193 19.5864C78.0572 19.4696 78.2163 19.4007 78.3967 19.3795C78.5771 19.3476 78.7521 19.3264 78.9219 19.3158C79.0917 19.2946 79.2243 19.284 79.3198 19.284C79.4153 19.284 79.5479 19.2946 79.7176 19.3158C79.8874 19.3264 80.0625 19.3423 80.2428 19.3635C80.3914 19.3848 80.5346 19.4643 80.6725 19.6023C80.8211 19.7402 80.9325 19.8781 81.0068 20.0161C81.6009 21.841 82.2004 23.6818 82.8051 25.5385C83.4205 27.3847 84.0253 29.2202 84.6194 31.0451C84.768 31.5332 84.5452 31.8727 83.951 32.0637C83.8661 32.0849 83.7866 32.1008 83.7123 32.1114C83.6486 32.1326 83.5744 32.1432 83.4895 32.1432C83.3409 32.1432 83.203 32.0955 83.0757 32C82.959 31.8939 82.8741 31.7613 82.8211 31.6021V31.618L79.3198 20.9232ZM80.5134 28.1804C80.5134 28.5199 80.3914 28.8117 80.1474 29.0557C79.9139 29.2892 79.6275 29.4059 79.2879 29.4059C78.9484 29.4059 78.662 29.2892 78.4285 29.0557C78.1951 28.8117 78.0784 28.5199 78.0784 28.1804C78.0784 27.8409 78.1951 27.5544 78.4285 27.321C78.662 27.077 78.9484 26.955 79.2879 26.955C79.6275 26.955 79.9139 27.077 80.1474 27.321C80.3914 27.5544 80.5134 27.8409 80.5134 28.1804Z" fill="#122A44"/>
<path d="M45.2868 14.6265C39.0721 14.6265 34.0337 19.6413 34.0337 25.8265C34.0337 32.0117 39.0721 37.0265 45.2868 37.0265C51.5015 37.0265 56.5387 32.0129 56.5387 25.8265C56.5387 19.64 51.5003 14.6265 45.2868 14.6265ZM45.2868 36.8177C39.1931 36.8177 34.2528 31.9022 34.2528 25.8355C34.2528 19.7688 39.1928 14.8533 45.2868 14.8533C51.3809 14.8533 56.3199 19.7704 56.3199 25.8355C56.3199 31.9006 51.3799 36.8177 45.2868 36.8177Z" fill="white" stroke="white" stroke-width="0.021941" stroke-linecap="round" stroke-linejoin="round"/>
<path d="M45.2866 14.4C38.8829 14.4 33.6929 19.5666 33.6929 25.9398C33.6929 32.3129 38.8832 37.4792 45.2866 37.4792C51.6901 37.4792 56.8804 32.3126 56.8804 25.9398C56.8804 19.567 51.6894 14.4 45.2866 14.4ZM45.2866 37.0259C39.0719 37.0259 34.0335 32.0123 34.0335 25.8259C34.0335 19.6394 39.0719 14.6259 45.2866 14.6259C51.5013 14.6259 56.5385 19.6407 56.5385 25.8259C56.5385 32.0111 51.5001 37.0259 45.2866 37.0259Z" fill="#00A8F2" stroke="white" stroke-width="0.021941" stroke-linecap="round" stroke-linejoin="round"/>
<path opacity="0.9" d="M45.2754 36.6968C51.3098 36.6968 56.2016 31.8267 56.2016 25.8191C56.2016 19.8115 51.3098 14.9414 45.2754 14.9414C39.241 14.9414 34.3491 19.8115 34.3491 25.8191C34.3491 31.8267 39.241 36.6968 45.2754 36.6968Z" fill="#00ADEF"/>
<path d="M45.2756 37.1544C51.5639 37.1544 56.6615 32.0794 56.6615 25.8191C56.6615 19.5588 51.5639 14.4838 45.2756 14.4838C38.9873 14.4838 33.8896 19.5588 33.8896 25.8191C33.8896 32.0794 38.9873 37.1544 45.2756 37.1544Z" stroke="url(#paint0_linear_102_845)" stroke-width="0.51484" stroke-miterlimit="10"/>
<path d="M45.2757 36.6003C51.2566 36.6003 56.105 31.7734 56.105 25.8191C56.105 19.8648 51.2566 15.0378 45.2757 15.0378C39.2948 15.0378 34.4463 19.8648 34.4463 25.8191C34.4463 31.7734 39.2948 36.6003 45.2757 36.6003Z" stroke="url(#paint1_linear_102_845)" stroke-width="0.519167" stroke-miterlimit="10"/>
<path d="M34.2159 25.8192C34.2159 25.8192 34.0222 23.1971 35.8409 20.1361C37.1631 17.911 40.3253 14.8385 45.2753 14.8419C51.5859 14.8463 54.4316 19.6819 54.7109 20.1361C56.4156 22.8994 56.3359 25.8192 56.3359 25.8192C56.3359 25.8192 56.5859 23.1212 54.8425 20.0428C53.4347 17.5539 50.0978 14.6021 45.2769 14.6021C40.6084 14.6021 37.3447 17.2225 35.6997 20.04C34.0547 22.8574 34.2159 25.8192 34.2159 25.8192Z" fill="white"/>
<path d="M56.3299 25.8192C56.3255 25.9436 56.2987 28.5912 54.7621 31.2241C53.458 33.4572 50.2293 36.6576 45.2793 36.6576C39.1624 36.6576 36.1362 31.7016 35.863 31.2443C34.1915 28.4415 34.2162 25.8201 34.2162 25.8201C34.2162 25.8201 33.9402 28.2912 35.6824 31.3697C37.0887 33.8586 40.458 36.8785 45.2787 36.867C49.9493 36.8555 53.2437 34.1712 54.889 31.3541C56.5343 28.537 56.3309 25.7927 56.3299 25.8192Z" fill="white"/>
<path d="M45.2756 36.8633C51.4023 36.8633 56.369 31.9187 56.369 25.8192C56.369 19.7197 51.4023 14.775 45.2756 14.775C39.1488 14.775 34.1821 19.7197 34.1821 25.8192C34.1821 31.9187 39.1488 36.8633 45.2756 36.8633Z" stroke="white" stroke-width="0.0967257" stroke-miterlimit="10"/>
<path d="M45.2755 29.515C47.3258 29.515 48.988 27.8603 48.988 25.819C48.988 23.7778 47.3258 22.123 45.2755 22.123C43.2251 22.123 41.563 23.7778 41.563 25.819C41.563 27.8603 43.2251 29.515 45.2755 29.515Z" fill="#FFD32D" stroke="white" stroke-width="0.258038" stroke-miterlimit="10"/>
<path d="M45.3734 18.3329C45.3734 18.2791 45.3296 18.2355 45.2755 18.2355C45.2215 18.2355 45.1777 18.2791 45.1777 18.3329V21.4835C45.1777 21.5373 45.2215 21.5809 45.2755 21.5809C45.3296 21.5809 45.3734 21.5373 45.3734 21.4835V18.3329Z" fill="white"/>
<path d="M42.4887 18.8652C42.468 18.8155 42.4108 18.7919 42.3609 18.8125C42.311 18.833 42.2873 18.89 42.3079 18.9397L43.519 21.8505C43.5397 21.9002 43.5969 21.9238 43.6468 21.9032C43.6967 21.8826 43.7204 21.8256 43.6997 21.776L42.4887 18.8652Z" fill="white"/>
<path d="M40.0278 20.4567C39.9896 20.4186 39.9277 20.4186 39.8895 20.4567C39.8513 20.4947 39.8513 20.5563 39.8895 20.5944L42.1272 22.8222C42.1654 22.8602 42.2274 22.8602 42.2656 22.8222C42.3038 22.7842 42.3038 22.7225 42.2656 22.6845L40.0278 20.4567Z" fill="white"/>
<path d="M38.1731 22.9595C38.1234 22.9391 38.0665 22.9626 38.046 23.0121C38.0254 23.0616 38.0491 23.1183 38.0988 23.1387L41.0103 24.3359C41.06 24.3564 41.1169 24.3328 41.1374 24.2833C41.158 24.2339 41.1343 24.1772 41.0846 24.1567L38.1731 22.9595Z" fill="white"/>
<path d="M37.756 25.7217C37.702 25.7217 37.6582 25.7653 37.6582 25.8191C37.6582 25.8729 37.702 25.9165 37.756 25.9165H40.9207C40.9747 25.9165 41.0185 25.8729 41.0185 25.8191C41.0185 25.7653 40.9747 25.7217 40.9207 25.7217H37.756Z" fill="white"/>
<path d="M38.2904 28.5941C38.2405 28.6147 38.2168 28.6716 38.2375 28.7213C38.2581 28.771 38.3154 28.7946 38.3653 28.774L41.2891 27.5683C41.339 27.5477 41.3627 27.4908 41.342 27.4411C41.3213 27.3914 41.2641 27.3678 41.2142 27.3884L38.2904 28.5941Z" fill="white"/>
<path d="M39.8893 31.0438C39.8511 31.0818 39.8511 31.1435 39.8893 31.1815C39.9275 31.2195 39.9895 31.2195 40.0277 31.1815L42.2654 28.9537C42.3036 28.9157 42.3036 28.854 42.2654 28.816C42.2272 28.7779 42.1653 28.7779 42.1271 28.816L39.8893 31.0438Z" fill="white"/>
<path d="M42.3079 32.6983C42.2872 32.748 42.3109 32.8049 42.3608 32.8255C42.4107 32.8461 42.4679 32.8225 42.4886 32.7728L43.6997 29.862C43.7204 29.8123 43.6967 29.7554 43.6467 29.7348C43.5968 29.7142 43.5396 29.7378 43.5189 29.7875L42.3079 32.6983Z" fill="white"/>
<path d="M45.1779 33.3053C45.1779 33.3591 45.2217 33.4027 45.2757 33.4027C45.3297 33.4027 45.3735 33.3591 45.3735 33.3053V30.1547C45.3735 30.1009 45.3297 30.0573 45.2757 30.0573C45.2217 30.0573 45.1779 30.1009 45.1779 30.1547V33.3053Z" fill="white"/>
<path d="M48.0626 32.7728C48.0833 32.8225 48.1405 32.8461 48.1904 32.8255C48.2403 32.8049 48.264 32.7479 48.2433 32.6982L47.0323 29.7874C47.0116 29.7378 46.9544 29.7142 46.9045 29.7347C46.8545 29.7553 46.8308 29.8123 46.8515 29.862L48.0626 32.7728Z" fill="white"/>
<path d="M50.524 31.1813C50.5622 31.2193 50.6241 31.2193 50.6623 31.1813C50.7005 31.1433 50.7005 31.0816 50.6623 31.0436L48.4245 28.8157C48.3863 28.7777 48.3244 28.7777 48.2862 28.8157C48.248 28.8538 48.248 28.9154 48.2862 28.9535L50.524 31.1813Z" fill="white"/>
<path d="M52.4255 28.6484C52.4752 28.6688 52.5321 28.6453 52.5527 28.5958C52.5732 28.5463 52.5496 28.4897 52.4999 28.4692L49.5883 27.272C49.5386 27.2516 49.4817 27.2751 49.4612 27.3246C49.4407 27.374 49.4643 27.4307 49.514 27.4512L52.4255 28.6484Z" fill="white"/>
<path d="M52.7953 25.9162C52.8493 25.9162 52.8931 25.8726 52.8931 25.8188C52.8931 25.765 52.8493 25.7214 52.7953 25.7214H49.6306C49.5765 25.7214 49.5328 25.765 49.5328 25.8188C49.5328 25.8726 49.5765 25.9162 49.6306 25.9162H52.7953Z" fill="white"/>
<path d="M52.2599 23.0441C52.3098 23.0235 52.3335 22.9666 52.3128 22.9169C52.2921 22.8672 52.2349 22.8436 52.185 22.8642L49.2612 24.0699C49.2113 24.0904 49.1876 24.1474 49.2083 24.1971C49.229 24.2468 49.2862 24.2704 49.3361 24.2498L52.2599 23.0441Z" fill="white"/>
<path d="M50.6619 20.5941C50.7001 20.5561 50.7001 20.4945 50.6619 20.4564C50.6237 20.4184 50.5618 20.4184 50.5236 20.4564L48.2858 22.6843C48.2476 22.7223 48.2476 22.7839 48.2858 22.822C48.324 22.86 48.386 22.86 48.4242 22.822L50.6619 20.5941Z" fill="white"/>
<path d="M48.2434 18.94C48.2641 18.8903 48.2404 18.8334 48.1905 18.8128C48.1406 18.7922 48.0833 18.8158 48.0627 18.8655L46.8516 21.7763C46.8309 21.826 46.8546 21.8829 46.9045 21.9035C46.9544 21.9241 47.0117 21.9005 47.0323 21.8508L48.2434 18.94Z" fill="white"/>
<defs>
<linearGradient id="paint0_linear_102_845" x1="45.2756" y1="14.2246" x2="45.2756" y2="37.4133" gradientUnits="userSpaceOnUse">
<stop stop-color="#00AEEF"/>
<stop offset="0.56" stop-color="#0089CF"/>
<stop offset="1" stop-color="#015186"/>
</linearGradient>
<linearGradient id="paint1_linear_102_845" x1="45.2757" y1="36.8614" x2="45.2757" y2="14.7765" gradientUnits="userSpaceOnUse">
<stop stop-color="#3FA9F5"/>
<stop offset="0.56" stop-color="#0089CF"/>
<stop offset="1" stop-color="#015186"/>
</linearGradient>
</defs>
</svg>
