<svg width="24" height="26" viewBox="0 0 24 26" fill="none" xmlns="http://www.w3.org/2000/svg">
<path fill-rule="evenodd" clip-rule="evenodd" d="M11.6998 0.131507C15.3897 5.47944 22.4995 6.53149 22.5895 6.53149C22.6107 6.55219 22.637 6.57289 22.6648 6.59474C22.7545 6.66544 22.8595 6.74823 22.8595 6.88218C22.8595 7.05752 22.6795 20.8219 11.6998 25.8191H11.5198H11.3398C0.0899974 20.8219 0 7.05752 0 6.88218C0 6.70683 0.0899981 6.53149 0.269994 6.53149C0.269994 6.53149 7.46984 5.39177 11.1598 0.131507C11.2498 -0.0438356 11.6097 -0.0438356 11.6998 0.131507ZM5.21982 14.8609L10.0797 19.5951L19.7095 10.2143L18.4495 8.9869L10.0797 17.1403L6.47978 13.6335L5.21982 14.8609Z" fill="white"/>
</svg>
