<svg width="33" height="33" viewBox="0 0 33 33" fill="none" xmlns="http://www.w3.org/2000/svg">
<path d="M7.7367 11.4003C4.9767 16.1808 6.62149 22.2919 11.402 25.0519C16.1824 27.8119 22.2972 26.1808 25.0572 21.4003C27.8222 16.6112 26.1824 10.4914 21.402 7.73143C16.6215 4.97143 10.5017 6.61123 7.7367 11.4003ZM23.3302 20.3917C21.1202 24.2195 16.2298 25.5299 12.402 23.3199C8.57412 21.1099 7.26375 16.2195 9.47375 12.3917C11.6837 8.56385 16.5741 7.25348 20.402 9.46348C24.2298 11.6735 25.5402 16.5639 23.3302 20.3917Z" fill="white"/>
<path d="M12.3218 13.459L11.5718 14.758L16.7679 17.758L22.1209 14.7864L21.4307 13.5218L16.8684 16.084L12.3218 13.459Z" fill="white"/>
</svg>
