<svg width="96" height="48" viewBox="0 0 96 48" fill="none" xmlns="http://www.w3.org/2000/svg">
<path d="M26 32L27.41 30.59L21.83 25L34 25L34 23L21.83 23L27.41 17.41L26 16L18 24L26 32Z" fill="#122A44"/>
<path d="M52.034 23.666C52.65 23.8153 53.1213 24.1047 53.448 24.534C53.7747 24.954 53.938 25.5093 53.938 26.2C53.938 27.068 53.658 27.754 53.098 28.258C52.5473 28.7527 51.7867 29 50.816 29H47.12V19.2H50.214C51.11 19.2 51.8007 19.4007 52.286 19.802C52.7807 20.2033 53.028 20.8007 53.028 21.594C53.028 22.0607 52.944 22.476 52.776 22.84C52.608 23.204 52.3607 23.4793 52.034 23.666ZM48.45 23.274H50.046C50.5687 23.274 50.9653 23.1713 51.236 22.966C51.516 22.7513 51.656 22.3733 51.656 21.832C51.656 21.2907 51.516 20.9173 51.236 20.712C50.9653 20.4973 50.5687 20.39 50.046 20.39H48.45V23.274ZM50.704 27.796C51.2547 27.796 51.6887 27.6607 52.006 27.39C52.3233 27.11 52.482 26.6993 52.482 26.158C52.482 25.038 51.8893 24.478 50.704 24.478H48.45V27.796H50.704ZM58.2035 29.14C57.5688 29.14 57.0555 28.9533 56.6635 28.58C56.2808 28.2067 56.0895 27.7307 56.0895 27.152C56.0895 26.284 56.5002 25.6633 57.3215 25.29C58.1428 24.9167 59.0995 24.7207 60.1915 24.702C60.1915 24.086 60.0702 23.6707 59.8275 23.456C59.5942 23.232 59.2162 23.12 58.6935 23.12C58.4042 23.12 58.1148 23.1667 57.8255 23.26C57.5362 23.344 57.2235 23.5027 56.8875 23.736L56.7055 22.714C56.9855 22.4993 57.3308 22.3267 57.7415 22.196C58.1522 22.0653 58.5815 22 59.0295 22C59.6175 22 60.0842 22.1027 60.4295 22.308C60.7842 22.5133 61.0408 22.854 61.1995 23.33C61.3675 23.806 61.4515 24.4593 61.4515 25.29V26.69C61.4515 27.0633 61.4655 27.348 61.4935 27.544C61.5308 27.7307 61.6055 27.8753 61.7175 27.978C61.8295 28.0807 62.0022 28.132 62.2355 28.132H62.3615L62.1655 29.14H62.0675C61.6755 29.14 61.3675 29.1027 61.1435 29.028C60.9195 28.9533 60.7468 28.846 60.6255 28.706C60.5135 28.566 60.4062 28.3747 60.3035 28.132C59.7248 28.804 59.0248 29.14 58.2035 29.14ZM58.4415 28.132C58.7775 28.132 59.0995 28.048 59.4075 27.88C59.7248 27.712 59.9862 27.488 60.1915 27.208V25.57C59.1835 25.6073 58.4602 25.7427 58.0215 25.976C57.5922 26.2 57.3775 26.5687 57.3775 27.082C57.3775 27.4367 57.4708 27.7027 57.6575 27.88C57.8535 28.048 58.1148 28.132 58.4415 28.132ZM67.8841 29.14C67.1374 29.14 66.4934 28.986 65.9521 28.678C65.4201 28.37 65.0187 27.95 64.7481 27.418C64.4774 26.8767 64.3421 26.2747 64.3421 25.612C64.3421 24.5293 64.6454 23.6567 65.2521 22.994C65.8681 22.3313 66.7781 22 67.9821 22C68.6914 22 69.3167 22.1353 69.8581 22.406L69.6621 23.512C69.0927 23.2507 68.5234 23.12 67.9541 23.12C67.2074 23.12 66.6334 23.3347 66.2321 23.764C65.8307 24.184 65.6301 24.7813 65.6301 25.556C65.6301 26.3307 65.8214 26.9373 66.2041 27.376C66.5961 27.8147 67.1701 28.034 67.9261 28.034C68.5327 28.034 69.1161 27.894 69.6761 27.614L69.8441 28.622C69.6387 28.762 69.3541 28.8833 68.9901 28.986C68.6354 29.0887 68.2667 29.14 67.8841 29.14ZM72.4775 18.5H73.7375V25.234L76.2575 22.14H77.7975L75.0675 25.332L77.8675 29H76.3275L73.7375 25.514V29H72.4775V18.5Z" fill="black"/>
</svg>
