<svg width="64" height="64" viewBox="0 0 64 64" fill="none" xmlns="http://www.w3.org/2000/svg">
<circle cx="32" cy="32" r="32" fill="#C4C4C4"/>
<path d="M26.625 17.875L23.6513 21.125H18.5C16.7125 21.125 15.25 22.5875 15.25 24.375V43.875C15.25 45.6625 16.7125 47.125 18.5 47.125H44.5C46.2875 47.125 47.75 45.6625 47.75 43.875V24.375C47.75 22.5875 46.2875 21.125 44.5 21.125H39.3488L36.375 17.875H26.625ZM31.5 42.25C27.015 42.25 23.375 38.61 23.375 34.125C23.375 29.64 27.015 26 31.5 26C35.985 26 39.625 29.64 39.625 34.125C39.625 38.61 35.985 42.25 31.5 42.25Z" fill="white"/>
<path d="M31.5 40.625L33.5312 36.1562L38 34.125L33.5312 32.0937L31.5 27.625L29.4687 32.0937L25 34.125L29.4687 36.1562L31.5 40.625Z" fill="#C4C4C4"/>
<path d="M35.595 35.3275V37.375H27.405V35.3275H26.04V37.375C26.04 38.1258 26.6542 38.74 27.405 38.74H35.595C36.3457 38.74 36.96 38.1258 36.96 37.375V35.3275H35.595ZM28.0875 31.2325L29.0498 32.1948L30.8175 30.434V36.01H32.1825V30.434L33.9502 32.1948L34.9125 31.2325L31.5 27.82L28.0875 31.2325Z" fill="white"/>
</svg>
