<svg width="40" height="36" viewBox="0 0 40 36" fill="none" xmlns="http://www.w3.org/2000/svg">
<path d="M36 4H29.66L27.18 1.3C26.44 0.48 25.36 0 24.24 0H11.44C10.3704 0 10.2645 0.75 10.7407 4.125C11.1111 6.75 11.1111 11.44 8.14815 6.75L6.66667 4.91082C4.07407 4.91082 4.8149 11.25 1.1112 7.875C0 7.125 -1.83758e-05 11.25 1.45768e-07 11.44V32C1.45768e-07 34.2 1.8 36 4 36H36C38.2 36 40 34.2 40 32V8C40 5.8 38.2 4 36 4ZM20 30C14.48 30 10 25.52 10 20C10 14.48 14.48 10 20 10C25.52 10 30 14.48 30 20C30 25.52 25.52 30 20 30Z" fill="#FAE203" fill-opacity="0.2"/>
<path d="M25.25 21.625V24.25H14.75V21.625H13V24.25C13 25.2125 13.7875 26 14.75 26H25.25C26.2125 26 27 25.2125 27 24.25V21.625H25.25ZM15.625 16.375L16.8588 17.6087L19.125 15.3512V22.5H20.875V15.3512L23.1413 17.6087L24.375 16.375L20 12L15.625 16.375Z" fill="#00ADEF"/>
</svg>
