<svg width="84" height="45" viewBox="0 0 84 45" fill="none" xmlns="http://www.w3.org/2000/svg">
<path d="M66 14L64.59 15.41L70.17 21H58V23H70.17L64.59 28.59L66 30L74 22L66 14Z" fill="#C4C4C4"/>
<path d="M14.12 17.2H15.562L20.392 24.536V17.2H21.736V27H20.602L15.45 19.258V27H14.12V17.2ZM28.21 27.14C27.426 27.14 26.754 26.9813 26.194 26.664C25.6433 26.3373 25.2233 25.8987 24.934 25.348C24.6447 24.7973 24.5 24.186 24.5 23.514C24.5 22.87 24.6307 22.282 24.892 21.75C25.1627 21.2087 25.55 20.784 26.054 20.476C26.5673 20.1587 27.1693 20 27.86 20C28.7373 20 29.4467 20.2567 29.988 20.77C30.5387 21.2833 30.814 21.9927 30.814 22.898C30.814 23.1313 30.7953 23.3553 30.758 23.57H25.788C25.872 24.4567 26.1427 25.0867 26.6 25.46C27.0573 25.8333 27.6453 26.02 28.364 26.02C29.0827 26.02 29.7407 25.8847 30.338 25.614L30.506 26.608C29.7127 26.9627 28.9473 27.14 28.21 27.14ZM29.512 22.702C29.512 22.2073 29.372 21.82 29.092 21.54C28.812 21.26 28.392 21.12 27.832 21.12C27.2907 21.12 26.866 21.2553 26.558 21.526C26.25 21.7873 26.0307 22.1793 25.9 22.702H29.512ZM35.1097 23.584L32.7717 20.14H34.1857L35.9077 22.856L37.4897 20.14H38.9597L36.7057 23.472L39.0437 27H37.6297L35.8937 24.298L34.1297 27H32.7157L35.1097 23.584ZM43.8126 27.14C43.2059 27.14 42.7532 26.9813 42.4546 26.664C42.1652 26.3467 42.0206 25.9593 42.0206 25.502V21.12H40.8446L40.9566 20.14H42.0206V18.446L43.2806 18.32V20.14H45.0866V21.12H43.2806V24.732C43.2806 25.208 43.3086 25.5347 43.3646 25.712C43.4206 25.8893 43.5372 26.006 43.7146 26.062C43.9012 26.1087 44.2372 26.132 44.7226 26.132H45.0446L44.9466 27.14H43.8126Z" fill="#C4C4C4"/>
<rect x="0.5" y="0.5" width="83" height="44" rx="1.5" stroke="#C4C4C4"/>
</svg>
