<svg width="72" height="72" viewBox="0 0 72 72" fill="none" xmlns="http://www.w3.org/2000/svg">
<path d="M53.5244 17.1622L42.3282 28.3585C42.3203 28.3664 42.3203 28.3742 42.3203 28.3821V56.8658C42.3203 57.86 41.5471 58.7121 40.5529 58.7437C39.5114 58.7753 38.6593 57.9468 38.6593 56.9132V42.1979C38.6593 41.9849 38.4857 41.8113 38.2726 41.8113H37.5862C37.381 41.8113 37.2154 41.977 37.2154 42.1821V56.8658C37.2154 57.86 36.4421 58.7121 35.4479 58.7437C34.4064 58.7753 33.5543 57.9468 33.5543 56.9132V28.5163C33.5543 28.5084 33.5543 28.5005 33.5464 28.4926L22.1529 17.107C21.427 16.3811 21.4349 15.1897 22.2003 14.4796C22.9262 13.801 24.0702 13.8562 24.7804 14.5585L35.1008 24.8789L35.1166 24.8947C35.2033 24.8789 35.2901 24.8789 35.3769 24.8789H40.4819C40.5292 24.8789 40.5766 24.8789 40.6239 24.8868L40.6318 24.8789L50.968 14.5427C51.6939 13.8168 52.8853 13.8247 53.5954 14.59C54.2819 15.308 54.2267 16.46 53.5244 17.1622Z" stroke="#00ADEF" stroke-width="0.825" stroke-miterlimit="10"/>
<path d="M35.3772 24.8709C35.2904 24.8709 35.1958 24.8788 35.1169 24.8867L35.1011 24.8709H35.3772Z" fill="#00ADEF"/>
<path d="M42.6923 31.3403C43.5445 31.1588 45.8168 30.4172 46.4875 27.6477C46.4875 27.6398 46.4954 27.624 46.4954 27.6161C46.527 27.4347 46.8978 25.5331 49.1071 24.7362C49.1071 24.7362 54.8038 22.6769 57.7468 17.9743C57.9204 17.6902 58.3465 17.7218 58.4727 18.0295C58.8909 19.0158 59.317 20.9805 57.5417 23.2134C57.2655 23.5606 57.66 24.034 58.0546 23.8288C58.4017 23.6474 58.812 23.4028 59.2854 23.0872C59.5695 22.8899 59.9561 23.1187 59.9245 23.4659C59.822 24.6336 59.2223 26.8192 56.4607 28.5156C56.0741 28.7523 56.3029 29.352 56.7448 29.2652C56.942 29.2257 57.1551 29.1863 57.3602 29.1311C57.7153 29.0364 57.9993 29.4151 57.8179 29.7307C57.3366 30.5671 56.2872 31.7901 54.0858 32.4213C53.636 32.5475 53.7149 33.2182 54.1884 33.2261C54.2041 33.2261 54.2199 33.2261 54.2357 33.2261C54.5908 33.234 54.7722 33.66 54.5276 33.9125C53.9201 34.5516 52.5945 35.3564 49.8093 35.2065C49.4148 35.1829 49.2254 35.672 49.5252 35.9324C49.6199 36.0192 49.7304 36.0981 49.833 36.1691C50.117 36.3664 50.0381 36.8004 49.7146 36.895C48.9098 37.1317 47.6316 37.2738 46.1798 36.5794C45.9036 36.4453 45.5801 36.6662 45.5959 36.9739C45.6038 37.0607 45.6117 37.1396 45.6196 37.2264C45.659 37.542 45.3434 37.7787 45.0515 37.6604C44.2861 37.3369 43.1184 36.6741 42.4083 35.4196C42.3767 35.3564 42.353 35.2933 42.353 35.2223V31.7348C42.3688 31.5534 42.5029 31.3798 42.6923 31.3403Z" fill="white" stroke="#00ADEF" stroke-width="0.825" stroke-miterlimit="10"/>
<path d="M33.1598 31.3403C32.3077 31.1588 30.0353 30.4172 29.3646 27.6477C29.3646 27.6398 29.3567 27.624 29.3567 27.6161C29.3252 27.4347 28.9543 25.5331 26.7451 24.7362C26.7451 24.7362 21.0483 22.6769 18.1053 17.9743C17.9317 17.6902 17.5056 17.7218 17.3794 18.0295C16.9612 19.0158 16.5351 20.9805 18.3104 23.2134C18.5866 23.5606 18.1921 24.034 17.7976 23.8288C17.4504 23.6474 17.0401 23.4028 16.5667 23.0872C16.2827 22.8899 15.896 23.1187 15.9276 23.4659C16.0302 24.6336 16.6298 26.8192 19.3914 28.5156C19.778 28.7523 19.5492 29.352 19.1074 29.2652C18.9101 29.2257 18.6971 29.1863 18.4919 29.1311C18.1369 29.0364 17.8528 29.4151 18.0343 29.7307C18.5156 30.5671 19.565 31.7901 21.7664 32.4213C22.2161 32.5475 22.1372 33.2182 21.6638 33.2261C21.648 33.2261 21.6322 33.2261 21.6164 33.2261C21.2614 33.234 21.0799 33.66 21.3245 33.9125C21.9321 34.5516 23.2576 35.3564 26.0429 35.2065C26.4374 35.1829 26.6267 35.672 26.3269 35.9324C26.2322 36.0192 26.1218 36.0981 26.0192 36.1691C25.7351 36.3664 25.814 36.8004 26.1375 36.895C26.9423 37.1317 28.2206 37.2738 29.6724 36.5794C29.9485 36.4453 30.272 36.6662 30.2562 36.9739C30.2483 37.0607 30.2405 37.1396 30.2326 37.2264C30.1931 37.542 30.5087 37.7787 30.8007 37.6604C31.566 37.3369 32.7338 36.6741 33.4439 35.4196C33.4754 35.3564 33.4991 35.2933 33.4991 35.2223V31.7348C33.4833 31.5534 33.3492 31.3798 33.1598 31.3403Z" stroke="#00ADEF" stroke-width="0.825" stroke-miterlimit="10"/>
<path d="M37.8478 23.1424C39.4427 23.1424 40.7356 21.8495 40.7356 20.2546C40.7356 18.6597 39.4427 17.3668 37.8478 17.3668C36.2529 17.3668 34.96 18.6597 34.96 20.2546C34.96 21.8495 36.2529 23.1424 37.8478 23.1424Z" stroke="#00ADEF" stroke-width="0.825" stroke-miterlimit="10"/>
</svg>
