<svg width="72" height="72" viewBox="0 0 72 72" fill="none" xmlns="http://www.w3.org/2000/svg">
<path d="M21.3447 49.2756H53.1878" stroke="#00ADEF" stroke-width="0.48" stroke-miterlimit="10" stroke-linecap="round"/>
<path d="M21.3447 51.0311H53.1878" stroke="#00ADEF" stroke-width="0.48" stroke-miterlimit="10" stroke-linecap="round"/>
<path d="M21.3447 52.7764H53.1878" stroke="#00ADEF" stroke-width="0.48" stroke-miterlimit="10" stroke-linecap="round"/>
<path d="M53.2714 54.8079H19.7762C17.6899 54.8079 16 53.118 16 51.0317V10.7771C16 8.69072 17.6899 7.00085 19.7762 7.00085H53.2714V54.8079V54.8079Z" stroke="#00ADEF" stroke-width="0.8" stroke-miterlimit="10"/>
<path d="M19.7762 47.2448H53.2714V54.8067H19.7762C17.6899 54.8067 16 53.1168 16 51.0305V51.021C16 48.9347 17.6899 47.2448 19.7762 47.2448Z" stroke="#00ADEF" stroke-width="0.8" stroke-miterlimit="10"/>
<path d="M38.1471 64.0784V53.59C37.6468 53.269 35.9663 52.2116 35.381 51.4847C34.588 50.484 33.9272 49.3795 33.4363 48.1805L29.037 37.5599C28.4611 36.1721 29.0558 34.5578 30.3775 33.9347L30.4625 33.8969C31.7275 33.3022 33.2097 33.9064 33.7667 35.2375L36.4573 41.7043V24.2487C36.4573 22.9081 37.4957 21.813 38.7796 21.813C40.0258 21.813 41.0265 22.8703 41.0265 24.1637V37.1823H41.5174V21.0106C41.5174 19.7078 42.5275 18.6599 43.7643 18.6599H43.8492C45.0859 18.6599 46.0866 19.7078 46.0866 21.0011V37.0879H46.5209V22.9836C46.5209 21.662 47.5405 20.5952 48.8055 20.5952H48.8527C50.0894 20.5952 51.0901 21.6431 51.0901 22.9364V37.0879H51.43V27.3357C51.43 26.0518 52.4213 25.0228 53.6391 25.0228C54.9419 25.0228 55.9992 26.1273 55.9992 27.4962V45.0179C55.9992 45.0179 55.9992 50.6728 53.8373 52.5421V64.0784" fill="white"/>
<path d="M38.1471 64.0784V53.59C37.6468 53.269 35.9663 52.2116 35.381 51.4847C34.588 50.484 33.9272 49.3795 33.4363 48.1805L29.037 37.5599C28.4611 36.1721 29.0558 34.5578 30.3775 33.9347L30.4625 33.8969C31.7275 33.3022 33.2097 33.9064 33.7667 35.2375L36.4573 41.7043V24.2487C36.4573 22.9081 37.4957 21.813 38.7796 21.813C40.0258 21.813 41.0265 22.8703 41.0265 24.1637V37.1823H41.5174V21.0106C41.5174 19.7078 42.5275 18.6599 43.7643 18.6599H43.8492C45.0859 18.6599 46.0866 19.7078 46.0866 21.0011V37.0878H46.5209V22.9836C46.5209 21.662 47.5405 20.5952 48.8055 20.5952H48.8527C50.0894 20.5952 51.0901 21.6431 51.0901 22.9364V37.0878H51.43V27.3357C51.43 26.0518 52.4213 25.0228 53.6391 25.0228C54.9419 25.0228 55.9992 26.1273 55.9992 27.4962V45.0179C55.9992 45.0179 55.9992 50.6728 53.8373 52.5421V64.0784" stroke="#00ADEF" stroke-width="0.781872" stroke-miterlimit="10" stroke-linejoin="round"/>
<path d="M19.7773 7V47.2452" stroke="#00ADEF" stroke-width="0.48" stroke-miterlimit="10"/>
<path d="M25.6001 14.4955H32.7844" stroke="#00ADEF" stroke-width="0.96" stroke-miterlimit="10"/>
<path d="M27.5181 14.4955C28.9247 14.4955 30.0576 15.6284 30.0576 17.0351C30.0576 18.4417 28.9247 19.5746 27.5181 19.5746" stroke="#00ADEF" stroke-width="0.96" stroke-miterlimit="10"/>
<path d="M30.5863 23.6157L26.1304 19.7639V19.5751H27.5181" stroke="#00ADEF" stroke-width="0.96" stroke-miterlimit="10"/>
<path d="M25.6001 16.8273H32.7844" stroke="#00ADEF" stroke-width="0.96" stroke-miterlimit="10"/>
</svg>
