<svg width="72" height="72" viewBox="0 0 72 72" fill="none" xmlns="http://www.w3.org/2000/svg">
<path d="M36 60C49.2548 60 60 49.2548 60 36C60 22.7452 49.2548 12 36 12C22.7452 12 12 22.7452 12 36C12 49.2548 22.7452 60 36 60Z" stroke="#00ADEF" stroke-width="0.340136" stroke-miterlimit="10"/>
<path d="M14.7271 24.871L19.6577 24.8855L23.098 27.0097L25.6771 29.9952L33.8448 33.6387C34.0335 33.721 34.2561 33.6581 34.3722 33.4839L34.5416 33.2274C35.0448 32.4484 34.8803 31.4129 34.1545 30.8274L30.9948 28.2774L29.4658 25.0016L31.1303 24.1548L34.377 25.0016L35.6303 27.0097L35.4658 30.0484C35.4512 30.329 35.4996 30.6 35.5964 30.8516" stroke="#00ADEF" stroke-width="0.428571" stroke-miterlimit="10"/>
<path d="M20.5527 17.6281L30.1237 18.1119L37.1011 22.2829C37.2995 22.399 37.4495 22.5781 37.5366 22.791L38.7947 25.8539C38.8769 26.0522 38.8963 26.27 38.8527 26.4781L37.7302 31.7619C37.6624 32.091 37.2995 32.27 36.9947 32.12L36.5544 31.9022C36.2398 31.7474 35.9834 31.52 35.7947 31.2442" stroke="#00ADEF" stroke-width="0.428571" stroke-miterlimit="10"/>
<path d="M55.9958 49.2783L50.9152 47.2895C50.2232 47.125 49.5071 47.0863 48.8006 47.1686L44.2426 47.6912C43.5458 47.7734 42.8442 47.7492 42.1522 47.6283L38.9539 47.0621C38.9006 47.0525 38.8426 47.0525 38.7845 47.0621L35.2764 47.3863C34.9135 47.4202 34.5748 47.5992 34.3426 47.8847L33.5345 48.8815C33.4184 48.9928 33.249 49.0412 33.0942 49.0025L26.7264 47.4589C25.6619 47.2025 24.5393 47.4347 23.6684 48.1025L23.4361 48.2815C23.1313 48.5137 23.1845 48.9928 23.5329 49.1476L37.899 55.646C37.9716 55.675 38.0442 55.6895 38.1216 55.6799L47.2861 55.4428C47.5861 55.4331 47.8813 55.4815 48.1619 55.5831L49.2942 55.9847" stroke="#00ADEF" stroke-width="0.428571" stroke-miterlimit="10"/>
<path d="M41.3406 38.9276L38.6938 40.3163L38.1713 40.5921C37.7697 40.805 37.2713 40.6744 37.0197 40.2969L34.3777 36.3147C34.0874 35.8744 34.2374 35.284 34.7067 35.0373L36.3277 34.1857L36.8938 35.2647L37.0148 35.4969C37.1309 35.7195 37.4067 35.8066 37.6342 35.6905C37.789 35.6082 37.8809 35.4486 37.8809 35.284C37.8809 35.2115 37.8616 35.1389 37.8277 35.0711L37.7067 34.8389L37.1406 33.7598L38.7519 32.9131C39.2164 32.6711 39.7922 32.8792 39.9858 33.3679L41.7616 37.805C41.9213 38.2308 41.7422 38.7147 41.3406 38.9276Z" stroke="#00ADEF" stroke-width="0.340136" stroke-miterlimit="10"/>
<path d="M38.687 40.3168L39.6789 42.2088L40.4386 42.3636L40.1289 43.0604L40.8838 43.2056L40.5741 43.9072L41.3289 44.0523L41.0193 44.7588L41.4644 45.6007L42.9935 45.8281L43.6322 44.4636L40.8548 39.1797" stroke="#00ADEF" stroke-width="0.340136" stroke-miterlimit="10"/>
<path d="M37.9868 36.3965C37.5271 36.6384 36.9561 36.4594 36.7142 35.9997C36.5787 35.7384 36.5739 35.4432 36.6803 35.1916L36.8352 35.4916C36.99 35.782 37.3481 35.8932 37.6384 35.7432C37.8416 35.6368 37.9577 35.4287 37.9577 35.2158C37.9577 35.1239 37.9336 35.0271 37.89 34.94L37.7352 34.64C38.0013 34.6932 38.2432 34.8626 38.3836 35.1239C38.6255 35.5836 38.4513 36.1545 37.9868 36.3965Z" fill="white" stroke="#00ADEF" stroke-width="0.214286" stroke-miterlimit="10"/>
<path d="M37.8664 35.2887C37.8664 35.4532 37.7793 35.6129 37.6196 35.6951C37.3971 35.8112 37.1212 35.7241 37.0003 35.5016L36.8793 35.2693L36.3132 34.1903L34.1745 30.1161C34.0583 29.8935 34.1406 29.6177 34.368 29.4967C34.5906 29.3806 34.8664 29.4677 34.9874 29.6903L35.5971 30.8564C35.6503 30.9919 35.718 31.1177 35.7954 31.2387L37.1212 33.7645L37.6874 34.8435L37.8083 35.0758C37.8519 35.1435 37.8664 35.2161 37.8664 35.2887Z" stroke="#00ADEF" stroke-width="0.340136" stroke-miterlimit="10"/>
<path d="M35.8004 31.2332C35.7182 31.1122 35.6504 30.9864 35.6021 30.851L35.8004 31.2332Z" stroke="#00ADEF" stroke-width="0.340136" stroke-miterlimit="10"/>
<path d="M33.1045 48.9971L39.1819 50.5165C39.5158 50.5987 39.8545 50.6326 40.198 50.6084L42.0948 50.4874" stroke="#00ADEF" stroke-width="0.428571" stroke-miterlimit="10"/>
</svg>
