<svg width="72" height="72" viewBox="0 0 72 72" fill="none" xmlns="http://www.w3.org/2000/svg">
<g clip-path="url(#clip0_66_601)">
<path d="M35.9991 21.1207C27.7815 21.1207 21.1191 27.7831 21.1191 36.0007C21.1191 44.2183 27.7815 50.8807 35.9991 50.8807C44.2167 50.8807 50.8791 44.2183 50.8791 36.0007C50.8791 27.7831 44.2167 21.1207 35.9991 21.1207ZM35.9991 45.3943C30.8103 45.3943 26.6055 41.1895 26.6055 36.0007C26.6055 30.8119 30.8103 26.6071 35.9991 26.6071C41.1879 26.6071 45.3927 30.8119 45.3927 36.0007C45.3927 41.1895 41.1879 45.3943 35.9991 45.3943Z" stroke="#00ADEF" stroke-width="0.366835" stroke-miterlimit="10"/>
<path d="M25.9968 32.0312L23.3472 30.7208L23.5968 30.212L24.6912 30.7544L24.696 30.7448L23.928 29.5496L24.2016 28.9976L24.9312 30.2072L26.8896 30.2312L26.6064 30.8024L25.2336 30.7832L25.4352 31.1288L26.2464 31.532L25.9968 32.0312Z" fill="#00ADEF"/>
<path d="M27.0383 30.0921L24.6143 28.4025L24.9359 27.9369L27.3599 29.6265L27.0383 30.0921Z" fill="#00ADEF"/>
<path d="M27.6244 29.2615L25.4404 27.2743L25.8196 26.8567L27.634 28.5079L28.2436 27.8359L28.6132 28.1719L27.6244 29.2615Z" fill="#00ADEF"/>
<path d="M27.5185 26.4534C27.4081 26.3094 27.3313 26.1702 27.2929 26.0454C27.2545 25.9158 27.2449 25.7958 27.2593 25.6854C27.2785 25.575 27.3217 25.4694 27.3889 25.3734C27.4561 25.2774 27.5473 25.1862 27.6577 25.1046C27.7681 25.023 27.8785 24.9606 27.9889 24.9174C28.0993 24.8742 28.2145 24.8598 28.3249 24.8742C28.4353 24.8886 28.5505 24.927 28.6609 24.999C28.7761 25.071 28.8865 25.1814 28.9969 25.3254L29.6401 26.1654C29.7505 26.3094 29.8273 26.4486 29.8657 26.5734C29.9041 26.703 29.9137 26.823 29.8993 26.9334C29.8801 27.0438 29.8369 27.1494 29.7697 27.2454C29.6977 27.3414 29.6113 27.4326 29.5009 27.5142C29.3905 27.5958 29.2801 27.6582 29.1697 27.7014C29.0593 27.7446 28.9441 27.759 28.8337 27.7446C28.7233 27.7302 28.6081 27.6918 28.4977 27.6198C28.3825 27.5478 28.2721 27.4374 28.1617 27.2934L27.5185 26.4534ZM28.6561 27.0102C28.7569 27.1398 28.8481 27.207 28.9345 27.2118C29.0209 27.2166 29.1121 27.1878 29.2033 27.1158C29.2945 27.0486 29.3473 26.967 29.3665 26.8854C29.3857 26.799 29.3425 26.6934 29.2417 26.5638L28.5121 25.6038C28.4113 25.4742 28.3201 25.407 28.2337 25.4022C28.1473 25.3974 28.0561 25.4262 27.9649 25.4982C27.8737 25.5702 27.8209 25.647 27.8017 25.7286C27.7825 25.815 27.8257 25.9206 27.9265 26.0502L28.6561 27.0102Z" fill="#00ADEF"/>
<path d="M30.4848 26.708L29.2944 24.0056L30.0192 23.6888L31.272 25.2584L31.2816 25.2536L30.9648 23.2712L31.6896 22.9544L32.88 25.6568L32.4384 25.8536L31.5024 23.7272L31.4928 23.732L31.8816 26.1032L31.4928 26.276L30 24.3848L29.9904 24.3896L30.9264 26.516L30.4848 26.708Z" fill="#00ADEF"/>
<path d="M33.2635 25.5991L32.7163 22.6951L34.2379 22.4071L34.3291 22.8967L33.3643 23.0791L33.4891 23.7463L34.2235 23.6071L34.3195 24.0967L33.5851 24.2359L33.7291 24.9991L34.7371 24.8119L34.8283 25.3015L33.2635 25.5991Z" fill="#00ADEF"/>
<path d="M36.8538 22.3111L36.8586 22.8103L36.201 22.8151L36.2154 25.2727L35.649 25.2775L35.6346 22.8199L34.977 22.8247L34.9722 22.3255L36.8538 22.3111Z" fill="#00ADEF"/>
<path d="M37.084 25.3011L37.5928 22.3875L39.1192 22.6563L39.0328 23.1459L38.0632 22.9779L37.948 23.6451L38.6872 23.7747L38.6008 24.2643L37.8616 24.1347L37.7272 24.9027L38.7352 25.0803L38.6488 25.5699L37.084 25.3011Z" fill="#00ADEF"/>
<path d="M40.209 26.1225L40.1754 24.8217L39.921 24.7257L39.4938 25.8537L38.9658 25.6521L40.0122 22.8873L40.7802 23.1753C41.097 23.2953 41.3082 23.4585 41.409 23.6601C41.5098 23.8617 41.505 24.0969 41.409 24.3561C41.3418 24.5289 41.2554 24.6633 41.145 24.7593C41.0346 24.8553 40.8954 24.9033 40.7274 24.9033L40.7802 26.3337L40.209 26.1225ZM40.089 24.2937L40.3626 24.3945C40.4778 24.4377 40.5834 24.4425 40.6746 24.4089C40.7658 24.3753 40.833 24.2889 40.8858 24.1545C40.9386 24.0201 40.9386 23.9097 40.8954 23.8233C40.8522 23.7369 40.7706 23.6745 40.6554 23.6313L40.3818 23.5305L40.089 24.2937Z" fill="#00ADEF"/>
<path d="M43.1472 25.3016C43.1808 25.1576 43.1904 25.0424 43.1664 24.956C43.1424 24.8696 43.0896 24.7976 43.008 24.7448C42.9216 24.692 42.84 24.6728 42.768 24.6968C42.6912 24.716 42.6288 24.7688 42.576 24.8552C42.5376 24.9176 42.528 24.9896 42.552 25.0712C42.576 25.1528 42.6144 25.2392 42.6624 25.3304C42.7152 25.4216 42.768 25.5224 42.8304 25.6328C42.8928 25.7384 42.9408 25.8536 42.9792 25.9688C43.0176 26.084 43.032 26.204 43.0272 26.3336C43.0224 26.4584 42.9792 26.588 42.8976 26.7176C42.8304 26.828 42.7488 26.9144 42.6576 26.9768C42.5664 27.044 42.4656 27.0824 42.36 27.1064C42.2544 27.1256 42.1392 27.1208 42.0192 27.092C41.8992 27.0632 41.7744 27.0104 41.6496 26.9336C41.4528 26.8088 41.3184 26.6504 41.2464 26.4488C41.1744 26.2472 41.184 26.0024 41.2752 25.7144L41.808 25.9112C41.7744 25.9976 41.7552 26.0744 41.7456 26.1416C41.7408 26.2088 41.7456 26.2712 41.76 26.324C41.7744 26.3768 41.7984 26.4248 41.8272 26.4632C41.856 26.5016 41.8896 26.5304 41.9232 26.5544C42.0048 26.6072 42.0912 26.6264 42.1824 26.6072C42.2736 26.5928 42.3456 26.5352 42.4032 26.4392C42.4512 26.3624 42.4704 26.276 42.4512 26.1848C42.432 26.0936 42.3984 26.0024 42.3504 25.9016C42.3024 25.8056 42.2448 25.7 42.1824 25.5944C42.12 25.4888 42.0672 25.3832 42.0288 25.2728C41.9904 25.1624 41.9664 25.052 41.9664 24.9368C41.9616 24.8216 42 24.7064 42.072 24.5864C42.2064 24.3704 42.3792 24.236 42.5808 24.1928C42.7872 24.1448 43.0128 24.2024 43.2624 24.3608C43.368 24.428 43.4544 24.5048 43.5216 24.5864C43.5888 24.668 43.6368 24.7592 43.6656 24.8552C43.6944 24.9512 43.7088 25.0472 43.704 25.148C43.6992 25.2488 43.68 25.3496 43.6464 25.4504L43.1472 25.3016Z" fill="#00ADEF"/>
<path d="M26.6934 46.0422L28.6374 43.7382L29.0502 44.0886L28.2486 45.039L28.2534 45.0438L29.5926 44.5446L30.0438 44.9286L28.6998 45.3846L28.1622 47.2854L27.6966 46.8918L28.0806 45.5574L27.6966 45.6822L27.1014 46.3878L26.6934 46.0422Z" fill="#00ADEF"/>
<path d="M28.9058 47.7081L30.3842 45.0825L30.8546 45.3465L29.3762 47.9721L28.9058 47.7081Z" fill="#00ADEF"/>
<path d="M30.2979 48.4278L31.3299 45.5958L31.8386 45.783L30.9795 48.1398L31.8003 48.4374L31.6275 48.9174L30.2979 48.4278Z" fill="#00ADEF"/>
<path d="M32.7698 47.1076C32.7986 46.9252 32.8466 46.7716 32.909 46.6516C32.9714 46.5316 33.0482 46.4404 33.1394 46.3732C33.2306 46.306 33.3314 46.2628 33.4466 46.2436C33.5618 46.2244 33.6818 46.2244 33.8114 46.2436C33.941 46.2628 34.0562 46.3012 34.1618 46.354C34.2626 46.4068 34.349 46.4788 34.4162 46.57C34.4834 46.6612 34.5266 46.7716 34.5506 46.906C34.5746 47.0404 34.5746 47.1988 34.5458 47.3812L34.3778 48.4469C34.349 48.6293 34.301 48.7829 34.2386 48.9029C34.1762 49.0229 34.0994 49.1141 34.0082 49.1813C33.917 49.2485 33.8162 49.2917 33.701 49.3109C33.5858 49.3301 33.4658 49.3301 33.3362 49.3109C33.2066 49.2917 33.0914 49.2533 32.9858 49.2005C32.885 49.1477 32.7986 49.0757 32.7314 48.9845C32.6642 48.8933 32.621 48.7829 32.597 48.6485C32.573 48.5141 32.573 48.3556 32.6018 48.1732L32.7698 47.1076ZM33.1298 48.3269C33.1058 48.4901 33.1202 48.6101 33.173 48.6773C33.2258 48.7445 33.3074 48.7877 33.4178 48.8021C33.5282 48.8213 33.6146 48.8021 33.6866 48.7541C33.7586 48.7061 33.8066 48.6005 33.8306 48.4325L34.0178 47.218C34.0418 47.0548 34.0322 46.9348 33.9746 46.8676C33.9218 46.8004 33.8402 46.7572 33.7298 46.7428C33.6194 46.7236 33.533 46.7428 33.461 46.7908C33.389 46.8388 33.341 46.9444 33.317 47.1124L33.1298 48.3269Z" fill="#00ADEF"/>
<path d="M35.2615 49.4596L35.1943 46.4452L35.9527 46.426L36.4903 48.394H36.4999L36.9463 46.402L37.7047 46.3828L37.7719 49.3972L37.3063 49.4068L37.2487 47.0404H37.2391L36.7159 49.426L36.3079 49.4356L35.6791 47.0788H35.6695L35.7223 49.45L35.2615 49.4596Z" fill="#00ADEF"/>
<path d="M38.8319 49.1959L38.1455 46.2583L39.5903 45.9223L39.7055 46.4167L38.7887 46.6327L38.9471 47.3095L39.6479 47.1463L39.7631 47.6407L39.0623 47.8039L39.2447 48.5767L40.1999 48.3559L40.3151 48.8503L38.8319 49.1959Z" fill="#00ADEF"/>
<path d="M41.5385 45.1111L41.7449 45.5767L41.1689 45.8359L42.1913 48.1255L41.6969 48.3463L40.6745 46.0567L40.0985 46.3159L39.8921 45.8503L41.5385 45.1111Z" fill="#00ADEF"/>
<path d="M43.5696 47.3818L41.7744 44.9578L42.9696 44.0746L43.272 44.4826L42.5136 45.0442L42.9264 45.601L43.5024 45.1738L43.8048 45.5818L43.2288 46.009L43.6992 46.6474L44.4912 46.0618L44.7936 46.4698L43.5696 47.3818Z" fill="#00ADEF"/>
<path d="M46.4067 44.78L45.1683 44.3384L45.0003 44.5352L45.9363 45.332L45.5859 45.7448L43.2915 43.7864L43.8003 43.1912C44.0115 42.9416 44.2323 42.8072 44.4531 42.7928C44.6739 42.7736 44.8947 42.86 45.1107 43.0472C45.2547 43.172 45.3555 43.3016 45.4131 43.436C45.4707 43.5704 45.4707 43.7192 45.4179 43.8728L46.7859 44.3384L46.4067 44.78ZM44.6355 44.228L44.8179 44.0168C44.8947 43.9256 44.9331 43.8344 44.9283 43.7384C44.9235 43.6424 44.8659 43.5512 44.7507 43.4552C44.6403 43.3592 44.5347 43.316 44.4435 43.3256C44.3475 43.3352 44.2611 43.3832 44.1843 43.4792L44.0019 43.6904L44.6355 44.228Z" fill="#00ADEF"/>
<path d="M45.9552 41.4686C45.8112 41.4398 45.6912 41.435 45.6048 41.459C45.5184 41.483 45.4512 41.5358 45.408 41.6174C45.36 41.7038 45.3504 41.7806 45.3792 41.8526C45.408 41.9246 45.4656 41.987 45.5568 42.035C45.624 42.0734 45.696 42.0782 45.7728 42.0494C45.8496 42.0254 45.936 41.987 46.0272 41.9342C46.1184 41.8814 46.2144 41.8238 46.3152 41.7614C46.416 41.699 46.5264 41.6462 46.6416 41.6078C46.7568 41.5694 46.8768 41.5502 47.0016 41.5502C47.1264 41.5502 47.2608 41.5886 47.3952 41.6654C47.5104 41.7278 47.6016 41.8046 47.6784 41.891C47.7504 41.9774 47.8032 42.0734 47.832 42.179C47.8608 42.2846 47.8656 42.395 47.8464 42.5102C47.8272 42.6254 47.784 42.7502 47.7168 42.875C47.6112 43.0718 47.4576 43.2062 47.2656 43.283C47.0688 43.3598 46.824 43.3598 46.5312 43.2782L46.68 42.7502C46.7664 42.779 46.848 42.7982 46.9152 42.803C46.9824 42.8078 47.0448 42.803 47.0976 42.7838C47.1504 42.7694 47.1936 42.7454 47.232 42.7166C47.2704 42.6878 47.2944 42.6542 47.3136 42.6206C47.3568 42.539 47.3712 42.4526 47.3472 42.3662C47.3232 42.2798 47.2608 42.2078 47.16 42.155C47.0784 42.1118 46.992 42.0974 46.9008 42.1166C46.8096 42.1358 46.7184 42.1694 46.6272 42.2222C46.5312 42.2702 46.4352 42.3278 46.3344 42.395C46.2336 42.4574 46.128 42.515 46.0224 42.5534C45.9168 42.5966 45.8016 42.6206 45.6912 42.6254C45.576 42.6302 45.456 42.6014 45.3312 42.5294C45.1008 42.4046 44.9568 42.2414 44.8944 42.0446C44.832 41.8478 44.8656 41.6222 45.0048 41.3774C45.0624 41.2718 45.1296 41.1854 45.2112 41.1182C45.288 41.051 45.3744 40.9982 45.4656 40.9694C45.5568 40.9358 45.6576 40.9214 45.7584 40.9214C45.8592 40.9214 45.9648 40.9358 46.0656 40.9694L45.9552 41.4686Z" fill="#00ADEF"/>
<path d="M47.8709 47.8731C54.4279 41.3161 54.4279 30.6851 47.8709 24.1281C41.3139 17.5711 30.6829 17.5711 24.1259 24.1281C17.5689 30.6851 17.5689 41.3161 24.1259 47.8731C30.6829 54.4301 41.3139 54.4301 47.8709 47.8731Z" stroke="#00ADEF" stroke-width="0.374198" stroke-miterlimit="10"/>
<path d="M36.8581 52.7671C26.9605 53.2663 18.7333 45.0439 19.2325 35.1463C19.6789 26.2711 27.0133 19.2103 36.0037 19.2103C45.2773 19.2103 52.7941 26.7271 52.7941 36.0007C52.7893 44.9863 45.7333 52.3207 36.8581 52.7671Z" stroke="#00ADEF" stroke-width="0.48" stroke-miterlimit="10"/>
<path d="M35.9996 45.3938C41.1875 45.3938 45.3932 41.1882 45.3932 36.0002C45.3932 30.8123 41.1875 26.6066 35.9996 26.6066C30.8116 26.6066 26.606 30.8123 26.606 36.0002C26.606 41.1882 30.8116 45.3938 35.9996 45.3938Z" stroke="#00ADEF" stroke-width="0.346814" stroke-miterlimit="10"/>
<path d="M35.9996 45.3938C41.1875 45.3938 45.3932 41.1882 45.3932 36.0002C45.3932 30.8123 41.1875 26.6066 35.9996 26.6066C30.8116 26.6066 26.606 30.8123 26.606 36.0002C26.606 41.1882 30.8116 45.3938 35.9996 45.3938Z" stroke="#00ADEF" stroke-width="0.346814" stroke-miterlimit="10"/>
<path d="M55.1085 36.4995L19.1277 44.9859C18.2061 45.2019 17.2845 44.6307 17.0685 43.7139L15.6189 37.5603C15.4029 36.6387 15.9741 35.7171 16.8909 35.5011L52.8717 27.0099C53.7933 26.7939 54.7149 27.3651 54.9309 28.2819L56.3805 34.4355C56.6013 35.3571 56.0301 36.2787 55.1085 36.4995Z" fill="white" stroke="#00ADEF" stroke-width="0.48" stroke-miterlimit="10"/>
<path d="M18.6462 43.8568L16.9326 36.5944L18.4494 36.2344L21.3966 40.084L21.4158 40.0792L20.403 35.7736L21.6702 35.476L23.3838 42.7384L22.0542 43.0504L18.8238 38.8648L18.8046 38.8696L19.9086 43.5592L18.6462 43.8568Z" fill="#00ADEF"/>
<path d="M23.4307 37.526C23.3251 37.0748 23.2915 36.686 23.3347 36.35C23.3779 36.014 23.4739 35.726 23.6323 35.4908C23.7907 35.2508 23.9971 35.054 24.2563 34.9004C24.5155 34.7468 24.8179 34.6316 25.1491 34.55C25.4851 34.4732 25.8019 34.4396 26.1043 34.4636C26.4067 34.4828 26.6803 34.5644 26.9251 34.7084C27.1699 34.8524 27.3859 35.0636 27.5731 35.3468C27.7603 35.63 27.9043 35.9948 28.0147 36.4412L28.6291 39.038C28.7347 39.4892 28.7683 39.878 28.7251 40.214C28.6819 40.55 28.5859 40.838 28.4275 41.0732C28.2691 41.3132 28.0627 41.51 27.8035 41.6636C27.5443 41.8172 27.2419 41.9324 26.9107 42.014C26.5747 42.0908 26.2579 42.1244 25.9555 42.1004C25.6531 42.0812 25.3795 41.9996 25.1347 41.8556C24.8899 41.7116 24.6739 41.5004 24.4867 41.2172C24.2995 40.934 24.1555 40.5692 24.0451 40.1228L23.4307 37.526ZM25.4707 39.974C25.5667 40.3772 25.7107 40.6268 25.9027 40.7324C26.0947 40.8332 26.3347 40.8524 26.6179 40.7852C26.9011 40.718 27.1027 40.598 27.2323 40.4156C27.3619 40.238 27.3763 39.9452 27.2803 39.542L26.5843 36.5852C26.4883 36.182 26.3443 35.9324 26.1523 35.8268C25.9603 35.726 25.7203 35.7068 25.4371 35.774C25.1539 35.8412 24.9523 35.9612 24.8227 36.1436C24.6931 36.3212 24.6787 36.614 24.7747 37.0172L25.4707 39.974Z" fill="#00ADEF"/>
<path d="M33.1023 40.4443L31.3887 33.1819L32.7759 32.8555L34.2015 38.8891L36.4335 38.3611L36.7215 39.5899L33.1023 40.4443Z" fill="#00ADEF"/>
<path d="M37.6482 39.3737L35.9346 32.1113L37.3218 31.7849L39.0354 39.0473L37.6482 39.3737Z" fill="#00ADEF"/>
<path d="M40.447 38.7113L38.7334 31.4489L40.6726 30.9929L43.0534 35.4665L43.0726 35.4617L43.207 30.3977L45.1462 29.9417L46.8646 37.1993L45.679 37.4777L44.3302 31.7657L44.311 31.7705L44.1814 37.8329L43.135 38.0777L40.3078 32.7113L40.2886 32.7161L41.6374 38.4281L40.447 38.7113Z" fill="#00ADEF"/>
<path d="M48.2712 36.8682L46.5576 29.6058L47.9448 29.2794L49.6584 36.5418L48.2712 36.8682Z" fill="#00ADEF"/>
<path d="M53.4783 27.9692L53.7663 29.198L52.1487 29.582L53.5695 35.6156L52.1823 35.942L50.7567 29.9084L49.1391 30.2924L48.8511 29.0636L53.4783 27.9692Z" fill="#00ADEF"/>
<path d="M36.0006 59.7598C49.1256 59.7598 59.7654 49.1221 59.7654 35.9998C59.7654 22.8775 49.1256 12.2398 36.0006 12.2398C22.8757 12.2398 12.2358 22.8775 12.2358 35.9998C12.2358 49.1221 22.8757 59.7598 36.0006 59.7598Z" stroke="#00ADEF" stroke-width="0.475248" stroke-miterlimit="10"/>
</g>
<defs>
<clipPath id="clip0_66_601">
<rect width="48" height="48" fill="white" transform="translate(12 12)"/>
</clipPath>
</defs>
</svg>
