<svg width="72" height="72" viewBox="0 0 72 72" fill="none" xmlns="http://www.w3.org/2000/svg">
<path d="M29.4097 28.5851H42.5905" stroke="#00ADEF" stroke-width="2.51228" stroke-miterlimit="10"/>
<path d="M32.9175 28.5845C35.4903 28.5845 37.5783 30.6725 37.5783 33.2453C37.5783 35.8181 35.4903 37.9061 32.9175 37.9061" stroke="#00ADEF" stroke-width="2.51228" stroke-miterlimit="10"/>
<path d="M38.5633 45.322L30.3745 38.242V37.906H32.9185" stroke="#00ADEF" stroke-width="2.51228" stroke-miterlimit="10"/>
<path d="M29.4092 32.8608H42.59" stroke="#00ADEF" stroke-width="2.51228" stroke-miterlimit="10"/>
<path d="M36.0481 14.7843C45.8449 14.7843 54.0913 21.6003 56.5489 30.8691L53.3137 28.2243L52.0801 31.5027C49.9585 24.4755 43.5841 19.3731 36.0481 19.3731C28.9441 19.3731 22.8721 23.9091 20.4193 30.3219L21.8209 30.7011L19.7665 32.4099L16.8193 34.8627L15.4417 31.2867L14.4481 28.7091L16.0753 29.1507C19.0513 20.7651 26.8705 14.7843 36.0481 14.7843ZM36.0481 14.3043C33.7489 14.3043 31.4881 14.6691 29.3233 15.3939C27.2305 16.0947 25.2529 17.1171 23.4529 18.4371C21.6769 19.7379 20.1025 21.3027 18.7777 23.0835C17.5249 24.7635 16.5217 26.6067 15.7825 28.5699L14.5777 28.2435C14.5345 28.2339 14.4961 28.2291 14.4529 28.2291C14.3185 28.2291 14.1889 28.2867 14.0977 28.3875C13.9777 28.5219 13.9393 28.7139 14.0065 28.8819L15.0001 31.4547L16.3777 35.0307C16.4353 35.1747 16.5553 35.2851 16.7041 35.3235C16.7425 35.3331 16.7857 35.3379 16.8241 35.3379C16.9345 35.3379 17.0449 35.2995 17.1313 35.2275L20.0785 32.7747L22.1329 31.0659C22.2721 30.9507 22.3345 30.7683 22.2961 30.5955C22.2577 30.4227 22.1233 30.2835 21.9505 30.2355L21.0673 29.9955C23.6449 23.8179 29.4721 19.8531 36.0481 19.8531C43.2289 19.8531 49.4881 24.5907 51.6193 31.6419C51.6769 31.8387 51.8593 31.9779 52.0609 31.9827C52.0657 31.9827 52.0705 31.9827 52.0753 31.9827C52.2769 31.9827 52.4545 31.8579 52.5265 31.6707L53.5249 29.0163L56.2465 31.2387C56.3329 31.3107 56.4433 31.3491 56.5489 31.3491C56.6401 31.3491 56.7313 31.3251 56.8081 31.2723C56.9809 31.1619 57.0673 30.9459 57.0097 30.7443C56.3905 28.4067 55.4065 26.1987 54.0817 24.1827C52.7809 22.1955 51.1873 20.4435 49.3441 18.9747C47.4817 17.4915 45.4129 16.3347 43.1953 15.5427C40.9057 14.7219 38.5009 14.3043 36.0481 14.3043Z" fill="#00ADEF"/>
<path d="M55.1803 37.1422L56.5579 40.7182L57.5515 43.291L55.9243 42.8494C52.9483 51.235 45.1291 57.2158 35.9515 57.2158C26.1547 57.2158 17.9083 50.3998 15.4507 41.1358L18.6859 43.7806L19.9147 40.5022C22.0363 47.5294 28.4107 52.6318 35.9467 52.6318C43.0507 52.6318 49.1227 48.0958 51.5755 41.683L50.1739 41.3038L52.2283 39.595L55.1803 37.1422ZM55.1803 36.6622C55.0699 36.6622 54.9595 36.7006 54.8731 36.7726L51.9259 39.2254L49.8715 40.9342C49.7323 41.0494 49.6699 41.2318 49.7083 41.4046C49.7467 41.5774 49.8811 41.7166 50.0539 41.7646L50.9371 42.0046C48.3547 48.1822 42.5275 52.147 35.9515 52.147C28.7707 52.147 22.5115 47.4094 20.3803 40.3582C20.3227 40.1614 20.1403 40.0222 19.9387 40.0174C19.9339 40.0174 19.9291 40.0174 19.9243 40.0174C19.7227 40.0174 19.5451 40.1422 19.4731 40.3294L18.4747 42.9838L15.7531 40.7614C15.6667 40.6894 15.5563 40.651 15.4507 40.651C15.3595 40.651 15.2683 40.675 15.1915 40.7278C15.0187 40.8382 14.9323 41.0542 14.9899 41.2558C15.6091 43.5934 16.5931 45.8014 17.9179 47.8174C19.2187 49.8046 20.8123 51.5566 22.6555 53.0254C24.5179 54.5086 26.5867 55.6654 28.8043 56.4574C31.0987 57.2782 33.5035 57.6958 35.9563 57.6958C38.2555 57.6958 40.5163 57.331 42.6811 56.6062C44.7739 55.9054 46.7515 54.883 48.5515 53.563C50.3275 52.2622 51.9019 50.6974 53.2267 48.9166C54.4795 47.2366 55.4827 45.3934 56.2219 43.4302L57.4267 43.7566C57.4699 43.7662 57.5083 43.771 57.5515 43.771C57.6859 43.771 57.8155 43.7134 57.9067 43.6126C58.0267 43.4782 58.0651 43.2862 57.9979 43.1182L57.0043 40.5454L55.6267 36.9694C55.5691 36.8254 55.4491 36.715 55.3003 36.6766C55.2571 36.667 55.2187 36.6622 55.1803 36.6622Z" fill="#00ADEF"/>
<path d="M0 0H72V72H0V0Z" fill="#C4C4C4" fill-opacity="0.02"/>
</svg>
