<svg width="72" height="72" viewBox="0 0 72 72" fill="none" xmlns="http://www.w3.org/2000/svg">
<path d="M51.2965 63.7922H25.7257C22.5193 63.7922 19.9219 61.1948 19.9219 57.9884V18.526C19.9219 15.3196 22.5193 12.7222 25.7257 12.7222H51.2965C54.503 12.7222 57.1003 15.3196 57.1003 18.526V57.9884C57.1003 61.1948 54.503 63.7922 51.2965 63.7922Z" stroke="#00ADEF" stroke-width="0.87" stroke-miterlimit="10"/>
<path d="M35.8829 40.2113L31.5211 33.1984C31.4315 33.064 31.2882 32.9745 31.1181 32.9834C28.8073 33.0461 26.5323 31.9176 25.2247 29.8128C24.0335 27.8872 23.926 25.6033 24.7321 23.6597C24.8754 23.3104 25.3501 23.2746 25.5471 23.588L28.046 27.6095C28.1355 27.7528 28.2878 27.8334 28.458 27.8245L31.5659 27.6991C31.7271 27.6901 31.8704 27.6006 31.951 27.4573L33.4467 24.7255C33.5274 24.5822 33.5184 24.4031 33.4378 24.2598L30.9389 20.2383C30.7419 19.9248 30.9837 19.5128 31.3599 19.5397C33.4557 19.674 35.462 20.7847 36.6621 22.7014C37.9698 24.8061 37.9787 27.3498 36.895 29.3919C36.8234 29.5352 36.8233 29.7053 36.9129 29.8486L41.2747 36.8616" stroke="#00ADEF" stroke-width="0.87" stroke-miterlimit="10"/>
<path d="M50.857 65.8803C55.8629 65.8803 59.9209 61.8222 59.9209 56.8163C59.9209 51.8104 55.8629 47.7523 50.857 47.7523C45.851 47.7523 41.793 51.8104 41.793 56.8163C41.793 61.8222 45.851 65.8803 50.857 65.8803Z" fill="#00ADEF" stroke="#00ADEF" stroke-width="0.87" stroke-miterlimit="10"/>
<path d="M46.2368 52.2122H55.3635" stroke="white" stroke-width="0.973356" stroke-miterlimit="10"/>
<path d="M48.6743 52.2122C50.4567 52.2122 51.8987 53.6542 51.8987 55.4365C51.8987 57.2188 50.4567 58.6608 48.6743 58.6608" stroke="white" stroke-width="0.973356" stroke-miterlimit="10"/>
<path d="M52.5801 63.7925L46.9106 58.8933V58.6604H48.6751" stroke="white" stroke-width="0.973356" stroke-miterlimit="10"/>
<path d="M46.2373 55.1677H55.364" stroke="white" stroke-width="0.973356" stroke-miterlimit="10"/>
<path d="M39.9224 20.8468H53.1063" stroke="#00ADEF" stroke-width="0.87" stroke-miterlimit="10"/>
<path d="M41.9292 26.1045H53.1069" stroke="#00ADEF" stroke-width="0.87" stroke-miterlimit="10"/>
<path d="M41.9292 31.5406H53.1069" stroke="#00ADEF" stroke-width="0.87" stroke-miterlimit="10"/>
<path d="M24.1763 45.9701H44.2657" stroke="#00ADEF" stroke-width="0.87" stroke-miterlimit="10"/>
<path d="M24.1763 50.9314H39.0799" stroke="#00ADEF" stroke-width="0.87" stroke-miterlimit="10"/>
<path d="M24.1763 56.0907H39.0799" stroke="#00ADEF" stroke-width="0.87" stroke-miterlimit="10"/>
</svg>
