<svg width="87" height="49" viewBox="0 0 87 49" fill="none" xmlns="http://www.w3.org/2000/svg">
<g clip-path="url(#clip0_2_3199)">
<path d="M62.3737 16.6768L60.9565 18.0939L66.5647 23.7121H54.3333V25.7222H66.5647L60.9565 31.3405L62.3737 32.7576L70.4141 24.7172L62.3737 16.6768Z" fill="#122A44"/>
</g>
<path d="M3.217 28.6667H4.78488V21.5509H7.58294V20.2242H0.418943V21.5509H3.217V28.6667ZM10.2266 21.165C10.7935 21.165 11.1915 20.7549 11.1915 20.2242C11.1915 19.7298 10.7814 19.3559 10.2266 19.3559C9.67185 19.3559 9.26179 19.7539 9.26179 20.2604C9.26179 20.767 9.67185 21.165 10.2266 21.165ZM9.46682 28.6667H10.9744V22.2263H9.46682V28.6667ZM22.087 22.1539C21.0618 22.1539 20.1935 22.564 19.6749 23.2273C19.2286 22.5037 18.4447 22.1539 17.504 22.1539C16.6235 22.1539 15.8758 22.4675 15.3933 23.0464V22.2263H13.9581V28.6667H15.4657V25.3982C15.4657 24.1198 16.1411 23.4686 17.1421 23.4686C18.0587 23.4686 18.5894 24.0233 18.5894 25.1691V28.6667H20.097V25.3982C20.097 24.1198 20.7844 23.4686 21.7734 23.4686C22.69 23.4686 23.2207 24.0233 23.2207 25.1691V28.6667H24.7283V24.9761C24.7283 23.0344 23.6428 22.1539 22.087 22.1539ZM33.7731 25.4827C33.7731 23.4686 32.3982 22.1539 30.5168 22.1539C28.5991 22.1539 27.188 23.5289 27.188 25.4465C27.188 27.3641 28.5871 28.7511 30.7459 28.7511C31.8555 28.7511 32.76 28.3893 33.3389 27.7018L32.5309 26.7732C32.0726 27.2435 31.5057 27.4727 30.7821 27.4727C29.6604 27.4727 28.8765 26.8696 28.6956 25.9289H33.749C33.7611 25.7842 33.7731 25.6033 33.7731 25.4827ZM30.5168 23.36C31.5057 23.36 32.2173 23.9992 32.3379 24.9279H28.6835C28.8283 23.9872 29.5398 23.36 30.5168 23.36Z" fill="#122A44"/>
<defs>
<clipPath id="clip0_2_3199">
<rect width="24.1212" height="24.1212" fill="white" transform="translate(50.313 12.6566)"/>
</clipPath>
</defs>
</svg>
